<svg width="129" height="43" viewBox="0 0 129 43" fill="none" xmlns="http://www.w3.org/2000/svg">
<path d="M23.2435 32V14.25H29.8685C31.8185 14.25 33.4435 14.65 34.7435 15.45C36.0601 16.2333 37.0518 17.3 37.7185 18.65C38.3851 19.9833 38.7185 21.4667 38.7185 23.1C38.7185 24.9 38.3518 26.4667 37.6185 27.8C36.8851 29.1333 35.8518 30.1667 34.5185 30.9C33.2018 31.6333 31.6518 32 29.8685 32H23.2435ZM34.5435 23.1C34.5435 22.0667 34.3601 21.1583 33.9935 20.375C33.6268 19.575 33.0935 18.9583 32.3935 18.525C31.6935 18.075 30.8518 17.85 29.8685 17.85H27.3435V28.4H29.8685C30.8685 28.4 31.7101 28.175 32.3935 27.725C33.0935 27.2583 33.6268 26.625 33.9935 25.825C34.3601 25.0083 34.5435 24.1 34.5435 23.1ZM47.089 32.25C45.9723 32.25 44.9806 32.075 44.114 31.725C43.2473 31.3583 42.5056 30.8667 41.889 30.25C41.289 29.6333 40.8306 28.925 40.514 28.125C40.1973 27.3083 40.039 26.4583 40.039 25.575C40.039 24.3083 40.314 23.1583 40.864 22.125C41.4306 21.075 42.239 20.2333 43.289 19.6C44.339 18.95 45.6056 18.625 47.089 18.625C48.5723 18.625 49.8306 18.9417 50.864 19.575C51.914 20.2083 52.714 21.0417 53.264 22.075C53.814 23.0917 54.089 24.2 54.089 25.4C54.089 25.6333 54.0723 25.8667 54.039 26.1C54.0223 26.3167 54.0056 26.5083 53.989 26.675H44.289C44.339 27.2583 44.4973 27.75 44.764 28.15C45.0473 28.55 45.4056 28.8583 45.839 29.075C46.2723 29.275 46.7306 29.375 47.214 29.375C47.814 29.375 48.3723 29.2333 48.889 28.95C49.4223 28.6667 49.789 28.2833 49.989 27.8L53.389 28.75C53.0556 29.4333 52.5806 30.0417 51.964 30.575C51.364 31.0917 50.6473 31.5 49.814 31.8C48.9973 32.1 48.089 32.25 47.089 32.25ZM44.189 24.225H49.889C49.8223 23.675 49.664 23.2 49.414 22.8C49.164 22.3833 48.8306 22.0667 48.414 21.85C47.9973 21.6167 47.539 21.5 47.039 21.5C46.5223 21.5 46.0556 21.6167 45.639 21.85C45.239 22.0667 44.914 22.3833 44.664 22.8C44.414 23.2 44.2556 23.675 44.189 24.225ZM64.2019 32.25C63.2185 32.25 62.3602 32.0417 61.6269 31.625C60.8935 31.1917 60.3185 30.6083 59.9019 29.875V37.325H55.9019V18.875H59.3769V21C59.8602 20.25 60.4685 19.6667 61.2019 19.25C61.9352 18.8333 62.7935 18.625 63.7769 18.625C64.6602 18.625 65.4685 18.8 66.2019 19.15C66.9519 19.5 67.6019 19.9833 68.1519 20.6C68.7019 21.2167 69.1269 21.9333 69.4269 22.75C69.7269 23.5667 69.8769 24.45 69.8769 25.4C69.8769 26.7 69.6352 27.8667 69.1519 28.9C68.6685 29.9333 67.9935 30.75 67.1269 31.35C66.2769 31.95 65.3019 32.25 64.2019 32.25ZM62.8519 28.875C63.2852 28.875 63.6769 28.7833 64.0269 28.6C64.3935 28.4 64.7102 28.1417 64.9769 27.825C65.2435 27.5083 65.4435 27.1417 65.5769 26.725C65.7269 26.2917 65.8019 25.8417 65.8019 25.375C65.8019 24.8917 65.7185 24.45 65.5519 24.05C65.4019 23.65 65.1852 23.3 64.9019 23C64.6185 22.6833 64.2852 22.4417 63.9019 22.275C63.5185 22.1083 63.1019 22.025 62.6519 22.025C62.3852 22.025 62.1102 22.0667 61.8269 22.15C61.5602 22.2333 61.3019 22.3583 61.0519 22.525C60.8185 22.675 60.6019 22.8583 60.4019 23.075C60.2019 23.2917 60.0352 23.5417 59.9019 23.825V26.525C60.0852 26.975 60.3269 27.375 60.6269 27.725C60.9269 28.075 61.2685 28.3583 61.6519 28.575C62.0352 28.775 62.4352 28.875 62.8519 28.875ZM71.8431 13.75H75.8431V27.325C75.8431 27.875 75.9431 28.2667 76.1431 28.5C76.3431 28.7333 76.6264 28.85 76.9931 28.85C77.2431 28.85 77.4931 28.8167 77.7431 28.75C78.0097 28.6667 78.2431 28.575 78.4431 28.475L78.9681 31.475C78.4681 31.7083 77.8931 31.8917 77.2431 32.025C76.5931 32.1583 75.9847 32.225 75.4181 32.225C74.2847 32.225 73.4014 31.925 72.7681 31.325C72.1514 30.7083 71.8431 29.8417 71.8431 28.725V13.75ZM86.5171 32.25C85.4004 32.25 84.4004 32.0667 83.5171 31.7C82.6504 31.3333 81.9171 30.8333 81.3171 30.2C80.7171 29.5667 80.2588 28.8417 79.9421 28.025C79.6421 27.2083 79.4921 26.35 79.4921 25.45C79.4921 24.5333 79.6421 23.6667 79.9421 22.85C80.2588 22.0333 80.7171 21.3083 81.3171 20.675C81.9171 20.0417 82.6504 19.5417 83.5171 19.175C84.4004 18.8083 85.4004 18.625 86.5171 18.625C87.6338 18.625 88.6254 18.8083 89.4921 19.175C90.3588 19.5417 91.0921 20.0417 91.6921 20.675C92.2921 21.3083 92.7504 22.0333 93.0671 22.85C93.3838 23.6667 93.5421 24.5333 93.5421 25.45C93.5421 26.35 93.3838 27.2083 93.0671 28.025C92.7504 28.8417 92.2921 29.5667 91.6921 30.2C91.0921 30.8333 90.3588 31.3333 89.4921 31.7C88.6254 32.0667 87.6338 32.25 86.5171 32.25ZM83.5921 25.45C83.5921 26.1333 83.7171 26.7333 83.9671 27.25C84.2338 27.7667 84.5838 28.1667 85.0171 28.45C85.4504 28.7333 85.9504 28.875 86.5171 28.875C87.0671 28.875 87.5588 28.7333 87.9921 28.45C88.4421 28.15 88.7921 27.7417 89.0421 27.225C89.2921 26.7083 89.4171 26.1167 89.4171 25.45C89.4171 24.7667 89.2921 24.1667 89.0421 23.65C88.7921 23.1333 88.4421 22.7333 87.9921 22.45C87.5588 22.1667 87.0671 22.025 86.5171 22.025C85.9504 22.025 85.4504 22.1667 85.0171 22.45C84.5838 22.7333 84.2338 23.1333 83.9671 23.65C83.7171 24.1667 83.5921 24.7667 83.5921 25.45ZM95.1376 33.975C95.4709 34.075 95.7793 34.15 96.0626 34.2C96.3626 34.2667 96.6293 34.3 96.8626 34.3C97.1793 34.3 97.4459 34.225 97.6626 34.075C97.8959 33.9417 98.0959 33.7 98.2626 33.35C98.4293 33.0167 98.5793 32.5667 98.7126 32L93.7126 18.875H97.8376L100.888 27.9L103.488 18.875H107.263L102.263 34.125C102.029 34.8417 101.671 35.475 101.188 36.025C100.704 36.575 100.121 37 99.4376 37.3C98.7543 37.6167 98.0043 37.775 97.1876 37.775C96.8376 37.775 96.4959 37.7417 96.1626 37.675C95.8293 37.625 95.4876 37.5333 95.1376 37.4V33.975Z" fill="black"/>
<rect x="1" y="1" width="127" height="41" stroke="black" stroke-width="2"/>
</svg>
